 <!DOCTYPE svg PUBLIC "-//W3C//DTD SVG 1.1//EN" "http://www.w3.org/Graphics/SVG/1.1/DTD/svg11.dtd">
<svg xmlns="http://www.w3.org/2000/svg" width="865.76" height="682.89" viewBox="0 0 865.76 682.89">
<defs>
<style xmlns="http://www.w3.org/1999/xhtml">*, ::after, ::before { box-sizing: border-box; }
img, svg { vertical-align: middle; }
</style>
<style xmlns="http://www.w3.org/1999/xhtml">*, body, html { -webkit-font-smoothing: antialiased; }
img, svg { max-width: 100%; }
</style>
</defs>
<rect x="642.44" y="340.63" width="97.78" height="1.03" fill="#c57da9" data-secondary="true"/>
<polygon points="678.99 435.22 672.27 378.18 634.81 378.18 634.81 377.15 673.18 377.15 673.24 377.6 679.9 434.18 726.57 433.17 726.59 434.19 678.99 435.22" fill="#c57da9" data-secondary="true"/>
<polygon points="148.17 111.89 205.69 481.52 639.91 481.52 594.5 185.39 148.17 111.89" fill="#3f4347"/>
<polygon points="166.28 135.32 220.6 466.61 613.45 466.61 585.98 198.17 166.28 135.32" fill="#ebebeb"/>
<polygon points="148.17 111.89 139.65 125.74 192.91 479.39 205.69 481.52 148.17 111.89" fill="#2e3135"/>
<path d="M529.42,385.39l-186.11-4.64L321,380.2l-30.6-.77a8.38,8.38,0,0,1-8.08-7l-23.6-138.82a8.39,8.39,0,0,1,9.18-9.75l247,26.79a9.16,9.16,0,0,1,8.1,7.9L538.74,375A9.19,9.19,0,0,1,529.42,385.39Z" fill="#16c022" data-primary="true"/>
<polygon points="293.45 226.64 289.84 209.89 312.21 213.09 315.48 229.03 293.45 226.64" fill="#c57da9" data-secondary="true"/>
<polygon points="362.69 234.1 359.08 217.35 381.45 220.54 384.72 236.49 362.69 234.1" fill="#c57da9" data-secondary="true"/>
<polygon points="432.99 241.56 429.39 224.8 451.76 228 455.03 243.95 432.99 241.56" fill="#c57da9" data-secondary="true"/>
<rect x="296.82" y="153.66" width="1.03" height="58.55" transform="matrix(0.98, -0.18, 0.18, 0.98, -28.33, 57.16)" fill="#c57da9" data-secondary="true"/>
<rect x="365.49" y="163.67" width="1.03" height="56.22" transform="translate(-27.34 65.23) rotate(-9.82)" fill="#c57da9" data-secondary="true"/>
<rect x="435.75" y="174.75" width="1.03" height="52" transform="translate(-27.13 74.7) rotate(-9.49)" fill="#c57da9" data-secondary="true"/>
<path d="M288.3,238.09,308,366.48H331.8l-8.39-56a.57.57,0,0,1,1.07-.33l27.3,58.45h25.65L359.08,245.2l-23.43-2.29,7,54a.71.71,0,0,1-1.33.41l-29.06-57.56Z" fill="#fff"/>
<path d="M410.36,273.44l1.78,22.27A2.82,2.82,0,0,0,415,298.3h17.89a.93.93,0,0,1,.91.81l2.38,19.27a.92.92,0,0,1-1,1l-18.56-.87,7.11,50.07H394L378.26,248.24,432,254.19l1.67,18.55-21.66-1A1.56,1.56,0,0,0,410.36,273.44Z" fill="#fff"/>
<path d="M440.55,253.62l1.66,21.51h19.9a2.6,2.6,0,0,1,2.58,2.28l11.57,94.4h29.28l-11.8-89.4a2.58,2.58,0,0,1,2.85-2.91l15.89,1.76L510.35,261Z" fill="#fff"/>
<polygon points="523.33 260.83 534.32 260.83 536.98 284.46 526.52 284.46 523.33 260.83" fill="#c57da9" data-secondary="true"/>
<rect x="535.82" y="273.65" width="57.93" height="1.03" fill="#c57da9" data-secondary="true"/>
<polygon points="528.93 302.29 540.48 302.29 543.37 326 532.13 326 528.93 302.29" fill="#c57da9" data-secondary="true"/>
<rect x="541.92" y="313.63" width="55.92" height="1.03" fill="#c57da9" data-secondary="true"/>
<polygon points="534.16 341.09 543.37 341.09 546.57 363.28 536.98 363.28 534.16 341.09" fill="#c57da9" data-secondary="true"/>
<rect x="544.97" y="351.68" width="56.77" height="1.03" fill="#c57da9" data-secondary="true"/>
<polygon points="453.76 383.5 456.02 395.24 475.05 395.24 472.63 383.97 453.76 383.5" fill="#c57da9" data-secondary="true"/>
<rect x="470.55" y="394.83" width="1.03" height="72.2" transform="matrix(0.99, -0.15, 0.15, 0.99, -59.67, 76.07)" fill="#c57da9" data-secondary="true"/>
<polygon points="388.51 381.88 390.94 395.24 410.35 395.24 407.2 381.88 388.51 381.88" fill="#c57da9" data-secondary="true"/>
<rect x="407" y="394.82" width="1.03" height="72.22" transform="translate(-61.15 67.45) rotate(-8.8)" fill="#c57da9" data-secondary="true"/>
<polygon points="345.24 395.24 322.76 395.24 320.97 380.2 343.31 380.75 345.24 395.24" fill="#c57da9" data-secondary="true"/>
<rect x="338.83" y="394.82" width="1.03" height="72.22" transform="translate(-61.95 57.01) rotate(-8.8)" fill="#c57da9" data-secondary="true"/>
<polygon points="261.5 250.15 253.81 250.15 255.76 273.8 265.52 273.8 261.5 250.15" fill="#c57da9" data-secondary="true"/>
<polygon points="274.81 328.44 262.76 328.44 265.52 353.47 279.06 353.47 274.81 328.44" fill="#c57da9" data-secondary="true"/>
<path d="M272.27,313.53h-12.6l-2.85-23.75s11.11-1.06,11.42,0S272.27,313.53,272.27,313.53Z" fill="#c57da9" data-secondary="true"/>
<polygon points="253.81 262.49 235.48 262.49 229.38 217.79 210.93 214.66 211.1 213.64 230.3 216.9 236.38 261.46 253.81 261.46 253.81 262.49" fill="#c57da9" data-secondary="true"/>
<rect x="211.91" y="253.45" width="1.03" height="92.29" transform="translate(-88.22 510.53) rotate(-89.72)" fill="#c57da9" data-secondary="true"/>
<path d="M175.5,366a4.87,4.87,0,0,1-2.19.51H62.47a5.68,5.68,0,0,1-3-.86h0a5.58,5.58,0,0,1-2.59-3.92L42.52,268.8a4.51,4.51,0,0,1,4.81-5.21l113.26,8.79a5.83,5.83,0,0,1,5.3,4.94l12.33,83.47A5,5,0,0,1,175.5,366Z" fill="#16c022" data-primary="true"/>
<path d="M175.5,366a4.87,4.87,0,0,1-2.19.51H62.47a5.68,5.68,0,0,1-3-.86h0L98.1,323.87s6-7.46,13.64,0l22.58,20.24,10.51-11.39a2.88,2.88,0,0,1,4.36.16Z" fill="#fff" opacity="0.2"/>
<ellipse cx="131.12" cy="302.57" rx="9.59" ry="12.78" transform="translate(-32.81 16.44) rotate(-6.38)" fill="#fff" opacity="0.2"/>
<path d="M126,451.7H62.37A5.36,5.36,0,0,1,57.05,447l-6.14-50.93A5.41,5.41,0,0,1,56.35,390l62.69.91a5.41,5.41,0,0,1,5.27,4.65l7,50A5.35,5.35,0,0,1,126,451.7Z" fill="#16c022" data-primary="true"/>
<path d="M834.1,377.66H750.85a7,7,0,0,1-7-6.13l-8-66.32a7,7,0,0,1,7.11-7.88l82,1.18a7,7,0,0,1,6.89,6.06L841,369.73A7,7,0,0,1,834.1,377.66Z" fill="#16c022" data-primary="true"/>
<rect x="128.87" y="427.56" width="68.23" height="1.03" fill="#c57da9" data-secondary="true"/>
<path d="M616.36,227l-3.08-25.66a1.27,1.27,0,0,1,.37-1.06,1.25,1.25,0,0,1,1.05-.36l22.8,2.71-.12,1-22.8-2.71a.24.24,0,0,0-.21.07.26.26,0,0,0-.07.21l3.08,25.66Z" fill="#c57da9" data-secondary="true"/>
<path d="M774,320.86l4.94,31.24a3.46,3.46,0,0,0,5.57,2.17l22-17.47A3.46,3.46,0,0,0,806,331l-27-13.77A3.46,3.46,0,0,0,774,320.86Z" fill="#fff" opacity="0.2"/>
<path d="M112,429.33a12,12,0,0,0-5.37,1.19l-4-28.89H68.27l3.16,30.49a3.88,3.88,0,0,0-1,2.53c0,3,3.81,5.33,8.52,5.33s8.52-2.38,8.52-5.33-3.82-5.32-8.52-5.32a12.43,12.43,0,0,0-4.68.87L71.44,412l29.86.31,3,20a3.76,3.76,0,0,0-.87,2.33c0,3,3.81,5.33,8.52,5.33s8.52-2.38,8.52-5.33S116.66,429.33,112,429.33Z" fill="#fff" opacity="0.2"/>
<path d="M817.33,473.46h-80a6.71,6.71,0,0,1-6.67-5.92l-7.73-64a6.79,6.79,0,0,1,6.84-7.6l78.76,1.14a6.8,6.8,0,0,1,6.63,5.85L824,465.8A6.72,6.72,0,0,1,817.33,473.46Z" fill="#16c022" data-primary="true"/>
<path d="M801.89,450.72a12.45,12.45,0,0,0-5.92,1.4l-4.4-34H753.75L757.23,454a4.71,4.71,0,0,0-1.13,3c0,3.46,4.21,6.26,9.39,6.26s9.4-2.8,9.4-6.26-4.21-6.26-9.4-6.26a12.89,12.89,0,0,0-5.15,1l-3.1-21.45,32.91.37,3.31,23.56a4.63,4.63,0,0,0-1,2.75c0,3.46,4.21,6.26,9.4,6.26s9.39-2.8,9.39-6.26S807.07,450.72,801.89,450.72Z" fill="#fff" opacity="0.2"/>
<path d="M581.19,356.36c4.26,1.06,68.13-2.21,68.13-2.21v-37l24.54-14.88-18-22.88s-3.26-11.28-28.83-10.84l-18.39-1.06s-30.62-1.7-33.82,30.26a169.47,169.47,0,0,0,3.2,30.89l3.2,9.59Z" fill="#16c022" data-primary="true"/>
<path d="M716,281.26c-4.76,20.77-18.67,39.95-18.67,39.95a29.76,29.76,0,0,1-12.49,10.34c-15,6.34-30.72-3.81-30.72-3.81l-4.77-10.57,20.74-12.57a12.25,12.25,0,0,0,2.31,1.71l0,0c12.38,7,23.83-19.22,23.83-19.22a7,7,0,0,1-3-5.86Z" fill="#f9b499"/>
<path d="M684.81,331.54h0c-15,6.34-30.72-3.81-30.72-3.81l-4.77-10.57,20.74-12.57,2.31,1.71,0,0S668.07,324.84,684.81,331.54Z" fill="#f7a48b"/>
<path d="M596.1,327.6,578,328.66s2.43,21.49,19.86,23.53c0,0,12.1,1,17.42-6.48l-9.51-7-5.38.17S595,337.19,596.1,327.6Z" fill="#f7a48b"/>
<polygon points="371.82 481.52 346.83 552.36 428.86 552.36 453.76 481.52 371.82 481.52" fill="#3f4347"/>
<polygon points="346.83 552.36 337.46 552.36 361.38 481.52 371.82 481.52 346.83 552.36" fill="#2e3135"/>
<rect x="388.85" y="551.83" width="101.26" height="19.17" fill="#2e3135"/>
<rect x="288.78" y="551.83" width="100.13" height="19.17" fill="#2e3135"/>
<rect x="288.78" y="551.83" width="100.13" height="19.17" opacity="0.2"/>
<path d="M229.13,310l-4.27,9.59s11.72-2.13,19.18,5.33l1.39-9-12-8Z" fill="#f7a48b"/>
<polygon points="332.87 367.89 306.89 422.94 247.23 412.36 247.23 416.55 309.55 428.07 336.94 367.89 332.87 367.89" fill="#16c022" data-primary="true"/>
<polygon points="332.87 367.89 306.89 422.94 247.23 412.36 247.23 416.55 309.55 428.07 336.94 367.89 332.87 367.89" fill="#fff" opacity="0.2"/>
<polygon points="292.09 370.36 273.69 417.05 306.89 422.94 332.87 367.89 292.09 370.36" fill="#e6e6e6"/>
<rect x="123.67" y="464.48" width="205.59" height="25.57" fill="#ccc"/>
<rect x="123.67" y="484.72" width="205.59" height="5.33" fill="#b3b3b3"/>
<rect x="137.52" y="464.48" width="42.61" height="20.24" fill="#e6e6e6"/>
<rect x="235.52" y="464.48" width="8.52" height="20.24" fill="#e6e6e6"/>
<rect x="268.54" y="464.48" width="7.46" height="20.24" fill="#e6e6e6"/>
<rect x="111.95" y="490.09" width="205.59" height="25.57" fill="#ccc"/>
<rect x="111.95" y="510.32" width="205.59" height="5.33" fill="#b3b3b3"/>
<rect x="125.8" y="490.09" width="42.61" height="20.24" fill="#e6e6e6"/>
<rect x="223.8" y="490.09" width="8.52" height="20.24" fill="#e6e6e6"/>
<rect x="256.82" y="490.09" width="7.46" height="20.24" fill="#e6e6e6"/>
<rect x="105.56" y="543.9" width="205.59" height="25.57" fill="#ccc"/>
<rect x="105.56" y="564.14" width="205.59" height="5.33" fill="#b3b3b3"/>
<rect x="119.41" y="543.9" width="42.61" height="20.24" fill="#e6e6e6"/>
<rect x="217.41" y="543.9" width="8.52" height="20.24" fill="#e6e6e6"/>
<rect x="250.43" y="543.9" width="7.46" height="20.24" fill="#e6e6e6"/>
<rect x="585.98" y="504.43" width="205.59" height="21.84" fill="#ccc"/>
<rect x="585.98" y="521.72" width="205.59" height="4.55" fill="#b3b3b3"/>
<rect x="599.83" y="504.43" width="42.61" height="17.29" fill="#e6e6e6"/>
<rect x="697.83" y="504.43" width="8.52" height="17.29" fill="#e6e6e6"/>
<rect x="730.85" y="504.43" width="7.46" height="17.29" fill="#e6e6e6"/>
<rect x="574.24" y="526.28" width="180.56" height="21.84" fill="#ccc"/>
<rect x="573.73" y="544.09" width="180.56" height="4.55" fill="#b3b3b3"/>
<rect x="585.89" y="526.8" width="37.42" height="17.29" fill="#e6e6e6"/>
<rect x="671.96" y="526.8" width="7.48" height="17.29" fill="#e6e6e6"/>
<rect x="700.96" y="526.8" width="6.55" height="17.29" fill="#e6e6e6"/>
<rect x="536.45" y="548.65" width="188.55" height="21.84" fill="#ccc"/>
<rect x="549.15" y="548.65" width="39.08" height="17.29" fill="#e6e6e6"/>
<rect x="639.02" y="548.65" width="7.82" height="17.29" fill="#e6e6e6"/>
<rect x="669.31" y="548.65" width="6.84" height="17.29" fill="#e6e6e6"/>
<rect x="137.52" y="515.65" width="184.82" height="28.23" fill="#ccc"/>
<rect x="137.52" y="538" width="184.82" height="5.88" fill="#b3b3b3"/>
<rect x="149.96" y="515.65" width="38.3" height="22.35" fill="#e6e6e6"/>
<rect x="238.06" y="515.65" width="7.66" height="22.35" fill="#e6e6e6"/>
<rect x="267.75" y="515.65" width="6.7" height="22.35" fill="#e6e6e6"/>
<polygon points="583.2 356.53 571.07 511.35 604.6 513.07 615.27 387.96 623.31 513.07 656.28 511.35 646.7 354.29 583.2 356.53" fill="#c57da9" data-secondary="true"/>
<polygon points="615.27 387.96 630.98 502.27 656.28 502.27 656.28 511.35 623.31 513.07 615.27 387.96" opacity="0.2"/>
<polygon points="571.07 511.35 571.75 502.58 605.86 498.33 604.6 513.07 571.07 511.35" opacity="0.2"/>
<polygon points="605.99 528.82 599.85 528.48 569.01 526.8 569.03 510.85 605.86 513.07 605.99 528.82" fill="#c57da9" data-secondary="true"/>
<path d="M602.42,548.64l-66,.53a3.44,3.44,0,0,1,.33-2.66C540.71,538.34,569,526.8,569,526.8l30.84,1.68,2.31,18Z" fill="#16c022" data-primary="true"/>
<path d="M602.43,548.63l-66,.54a3.42,3.42,0,0,1,.32-2.67h65.39Z" opacity="0.2"/>
<line x1="564.97" y1="528.53" x2="571.07" y2="537.72" fill="none" stroke="#020202" stroke-miterlimit="10"/>
<path d="M623.65,548.6l66-.5a3.4,3.4,0,0,0-.32-2.66c-3.94-8.16-32.24-19.71-32.24-19.71l-30.82,1.38-2.33,18.33Z" fill="#16c022" data-primary="true"/>
<path d="M623.65,548.6l66-.5a3.4,3.4,0,0,0-.32-2.66H623.92Z" opacity="0.2"/>
<line x1="661.1" y1="527.47" x2="655.01" y2="536.65" fill="none" stroke="#020202" stroke-miterlimit="10"/>
<polygon points="623.31 513.07 621.13 513.07 621.13 528.61 658.06 525.73 658.06 510.98 623.31 513.07" fill="#c57da9" data-secondary="true"/>
<path d="M610.64,257.73l-2.58,12.43a4.29,4.29,0,0,0,.59,3.2,14.21,14.21,0,0,0,5.07,4.66,10.79,10.79,0,0,0,13.07-1.84l.11-.12a5.58,5.58,0,0,0,.66-6.32c-1-1.87-1.93-4.47-1.06-6.58C626.5,263.16,617.72,267.75,610.64,257.73Z" fill="#f9b499"/>
<path d="M609.1,265.15l1.54-7.42s10.19,6.21,15.86,5.43C626.5,263.16,621.45,269.45,609.1,265.15Z" fill="#f7a48b"/>
<ellipse cx="621.66" cy="246.11" rx="14.38" ry="18.11" fill="#f9b499"/>
<path d="M635.56,241.42l1.6-1.13a9.51,9.51,0,0,0,3.2-3.78c3.3-7.42-7.38-9.58-7.38-9.58-2.54-2.66,1.83-4.42,1.83-4.42-2.83-3.89-12.08-.37-12.08-.37-2.13-1.07,1.07-4.26,1.07-4.26-8.53-3.2-16.52,8.53-16.52,8.53-20.77,4.27-3.71,23.43-3.71,23.43a9.67,9.67,0,0,1,5.27-.64s-.93-5.22,5.43-10.32a6.31,6.31,0,0,0,1.32-1.41c.49-.74,1.55-1.65,3.4.15,0,0,5,3.12,6.59.31a2.89,2.89,0,0,1,1.88-1.35,11.07,11.07,0,0,1,6.74.66A28.81,28.81,0,0,1,635.56,241.42Z" fill="#c57da9" data-secondary="true"/>
<path d="M635.56,241.42l1.6-1.13a9.51,9.51,0,0,0,3.2-3.78c3.3-7.42-7.38-9.58-7.38-9.58-2.54-2.66,1.83-4.42,1.83-4.42-2.83-3.89-12.08-.37-12.08-.37-2.13-1.07,1.07-4.26,1.07-4.26-8.53-3.2-16.52,8.53-16.52,8.53-20.77,4.27-3.71,23.43-3.71,23.43a9.67,9.67,0,0,1,5.27-.64s-.93-5.22,5.43-10.32a6.31,6.31,0,0,0,1.32-1.41c.49-.74,1.55-1.65,3.4.15,0,0,5,3.12,6.59.31a2.89,2.89,0,0,1,1.88-1.35,11.07,11.07,0,0,1,6.74.66A28.81,28.81,0,0,1,635.56,241.42Z" opacity="0.2"/>
<circle cx="606.75" cy="254.1" r="5.33" fill="#f9b499"/>
<polygon points="604.62 299.9 600.38 338.9 652.56 337.19 658.95 297.77 604.62 299.9" fill="#16c022" data-primary="true"/>
<polygon points="604.62 299.9 600.38 338.9 652.56 337.19 658.95 297.77 604.62 299.9" fill="#fff" opacity="0.2"/>
<path d="M574.79,341.09l25.59-2.19,4.24-39L659,297.77l-1.57-1.56a1.82,1.82,0,0,0-1.36-.54l-52.46,2.1L596.1,334l-21.31,4.91Z" fill="#16c022" data-primary="true"/>
<path d="M574.79,341.09l25.59-2.19,4.24-39L659,297.77l-1.57-1.56a1.82,1.82,0,0,0-1.36-.54l-52.46,2.1L596.1,334l-21.31,4.91Z" opacity="0.2"/>
<ellipse cx="630.98" cy="320.13" rx="7.68" ry="6.34" transform="translate(198.07 879.78) rotate(-79.18)" fill="#fff" opacity="0.2"/>
<path d="M600.47,345.74c-2-.34-3.35-2.41-3.71-4.42-.31-1.65-.12-3.36,1.83-3.62,0,0,1.81-.93,2,2.16a2,2,0,0,0,1.85,1.87c1,0,2.09-.57,2.47-3v-8.17a1.52,1.52,0,0,1,1.52-1.52h0a1.52,1.52,0,0,1,1.52,1.52v6.88l2-.27V328.3a1.42,1.42,0,0,1,1.42-1.42h0a1.42,1.42,0,0,1,1.43,1.42V337l1.41.16v-7.9a1.69,1.69,0,0,1,1.69-1.69h0a1.69,1.69,0,0,1,1.69,1.69v7.86l.88,0v-5.1a2.36,2.36,0,0,1,2.36-2.36h0a2.35,2.35,0,0,1,2.33,2c.81,4.66,1.4,15.92-12.15,15.07A72.1,72.1,0,0,1,600.47,345.74Z" fill="#f9b499"/>
<ellipse cx="245.43" cy="301.12" rx="16.12" ry="20.11" transform="translate(-87.73 101.33) rotate(-19.87)" fill="#f9b499"/>
<path d="M226.9,315s-34-27.38,4.36-38c0,0,7.45-17,30.89,4.26l-3.59.77s18.68,9.73,3.15,17.8a36.79,36.79,0,0,0-2.35-7s-4.17,7.77-10,3.25a9.1,9.1,0,0,0-3.78-1.85c-2.09-.4-4.8-.19-5.88,3.07a7,7,0,0,0-.17,3.59c.31,1.6.26,4.46-4.23,3.75L229.13,310Z" fill="#c57da9" data-secondary="true"/>
<path d="M226.9,315s-34-27.38,4.36-38c0,0,7.45-17,30.89,4.26l-3.59.77s18.68,9.73,3.15,17.8a36.79,36.79,0,0,0-2.35-7s-4.17,7.77-10,3.25a9.1,9.1,0,0,0-3.78-1.85c-2.09-.4-4.8-.19-5.88,3.07a7,7,0,0,0-.17,3.59c.31,1.6.26,4.46-4.23,3.75L229.13,310Z" opacity="0.2"/>
<circle cx="229.8" cy="306.62" r="5.86" fill="#f9b499"/>
<path d="M224.86,319.61a5.71,5.71,0,0,0-6.39,3.19s-15.43-2.24-25.82,20.72c0,0-12,23.72-14.38,67l69,6V390s5.87,14.83,17.32,15.36l47.74-3.73-3.37-21.73-32.85.3s-9.66-49.94-27.77-49.94a5.61,5.61,0,0,0-4.26-5.32S238.71,317.48,224.86,319.61Z" fill="#16c022" data-primary="true"/>
<path d="M218.15,414l22.55-46.12L247.23,390v26.55S216.76,412.54,218.15,414Z" opacity="0.2"/>
<path d="M309.23,381.88s6.18-8.59,14.68-8.23a1.18,1.18,0,0,1,.9,1.88,40.62,40.62,0,0,0-3.46,5.59.29.29,0,0,0,.37.4c2.92-1.35,13.55-6,18.65-3.76,0,0,1.67,1.5-12.18,5.76,0,0,12.56-2.13,13.2-.53,0,0,1.95,1.47-8.29,4.73,0,0,6.88-1.13,8.44,0,0,0,3.23,1.81-7.72,4.67,0,0,6-.12,5.52,1.37,0,0,0,4-27.44,5.39Z" fill="#f9b499"/>
<path d="M317.54,460.22l-12.88,78.83H264.28l9.94-75H205.69c-33-14.27-23.09-53.16-23.09-53.16l21.18,1.84,43.45,3.8,42.61,8.52C329.26,430.39,317.54,460.22,317.54,460.22Z" fill="#c57da9" data-secondary="true"/>
<path d="M262.75,464.07H205.69c-33-14.27-23.09-53.16-23.09-53.16l21.18,1.84S200.51,458.32,262.75,464.07Z" opacity="0.2"/>
<g opacity="0.2">
<path d="M212.5,415.29l-.49-.16a10.46,10.46,0,0,1,.71-1.7l.45.25A9.66,9.66,0,0,0,212.5,415.29Z"/>
<path d="M280,533.68c0-.8,0-1.65,0-2.53V530h.52c0,.38,0,.75,0,1.12,0,.87,0,1.72,0,2.52Zm.57-7.29h-.51c0-1.16.1-2.39.17-3.65l.51,0C280.69,524,280.63,525.24,280.59,526.39Zm.39-7.27-.51,0c.08-1.19.18-2.4.28-3.64l.51,0C281.16,516.72,281.07,517.93,281,519.12Zm.59-7.26-.51-.05c.11-1.2.23-2.41.35-3.63l.51.05C281.8,509.45,281.68,510.66,281.57,511.86Zm.73-7.26-.51-.05c.13-1.21.27-2.42.4-3.63l.51.06C282.57,502.19,282.43,503.4,282.3,504.6Zm.83-7.24-.51-.06c.15-1.21.29-2.42.45-3.62l.5.06C283.42,494.94,283.27,496.15,283.13,497.36Zm.91-7.23-.51-.07.48-3.62.51.07C284.36,487.71,284.2,488.91,284,490.13Zm1-7.23-.5-.07c.17-1.22.34-2.43.51-3.61l.5.07C285.35,480.48,285.18,481.68,285,482.9Zm1-7.22-.51-.07c.18-1.23.36-2.44.53-3.61l.51.08C286.41,473.25,286.23,474.45,286.05,475.68Zm1.08-7.21-.51-.08c.2-1.25.38-2.46.56-3.6l.51.08C287.51,466,287.32,467.22,287.13,468.47Zm1.13-7.2-.5-.09c.21-1.31.4-2.52.58-3.6l.51.09C288.67,458.74,288.48,460,288.26,461.27Zm-.2-7.1a5.06,5.06,0,0,0-2.37-2.44l.22-.46a5.53,5.53,0,0,1,2.61,2.68ZM282.22,451l-3.62-.49.08-.51c1.17.17,2.38.33,3.6.49ZM275,450l-3.61-.54.08-.51,3.6.54Zm-7.21-1.11-3.59-.6.09-.51,3.59.6Zm-7.18-1.23L257,447l.1-.51,3.58.66Zm-7.16-1.35-3.57-.74.1-.5c1.12.24,2.31.48,3.57.73Zm-7.14-1.51-3.55-.82.12-.5,3.55.82Zm-7.09-1.71c-1.79-.46-2.7-.74-2.71-.74l-.81-.23.15-.5.8.23s.92.28,2.7.75Zm-7-2.07c-1.19-.41-2.34-.84-3.42-1.28l.19-.48c1.08.44,2.22.87,3.4,1.27Zm-6.76-2.77c-1.14-.55-2.22-1.14-3.22-1.74l.26-.44c1,.59,2.06,1.17,3.18,1.72Zm-6.26-3.79a24.43,24.43,0,0,1-2.77-2.41l.36-.36a24.39,24.39,0,0,0,2.72,2.36Zm-5.13-5.23a16.79,16.79,0,0,1-1.76-3.24l.47-.2a16.4,16.4,0,0,0,1.71,3.15Zm-2.73-6.81a14.88,14.88,0,0,1-.16-2.22c0-.48,0-1,.06-1.47l.52.05a13.5,13.5,0,0,0-.07,1.42,15.43,15.43,0,0,0,.15,2.15Z"/>
<path d="M280.42,539.08c-.08-.55-.15-1.15-.2-1.79l.51,0c.06.63.12,1.23.2,1.77Z"/>
</g>
<path d="M272.77,475s-2.26,53.72,31.17,63.86a.11.11,0,0,1,0,.21H264.28Z" opacity="0.2"/>
<path d="M271,539.05l-2.42,23.43H341.4s6-7.45-20.66-13.85c0,0-13.55-5.32-21.16-9.58Z" fill="#16c022" data-primary="true"/>
<rect x="266.41" y="562.48" width="75.63" height="8.52" fill="#c57da9" data-secondary="true"/>
<path d="M207.68,257,45.18,242.54a9.82,9.82,0,0,1-8.86-8.45l-11.6-84.76A6.54,6.54,0,0,1,32.19,142L198,167.17a10.42,10.42,0,0,1,8.75,8.93l9.43,72.05A7.83,7.83,0,0,1,207.68,257Z" fill="#16c022" data-primary="true"/>
<path d="M106.38,190.19,111.49,220a2.35,2.35,0,0,0,3.06,1.84l33.06-11a1.33,1.33,0,0,0,.22-2.42l-38-20.71A2.36,2.36,0,0,0,106.38,190.19Z" fill="#fff"/>
<path d="M765.56,280.14a5,5,0,0,1-3.17,1.12H654.84a6.9,6.9,0,0,1-5.52-2.74,6.8,6.8,0,0,1-1.35-3.2l-13.11-89.85a4.83,4.83,0,0,1,5.52-5.47l112.83,17.51a5.76,5.76,0,0,1,4.83,4.94l9.36,73.12A5,5,0,0,1,765.56,280.14Z" fill="#16c022" data-primary="true"/>
<path d="M765.56,280.14a5,5,0,0,1-3.17,1.12H654.84a6.9,6.9,0,0,1-5.52-2.74l44.25-60.11,24.5,35.15,12.78-17Z" fill="#fff" opacity="0.2"/>
<ellipse cx="736.18" cy="217.88" rx="8.52" ry="12.25" fill="#fff" opacity="0.2"/>
<rect x="536.45" y="565.94" width="188.55" height="4.55" fill="#b3b3b3"/>
</svg>