<?xml version="1.0" encoding="UTF-8" standalone="no"?>
<svg
   xmlns:dc="http://purl.org/dc/elements/1.1/"
   xmlns:cc="http://creativecommons.org/ns#"
   xmlns:rdf="http://www.w3.org/1999/02/22-rdf-syntax-ns#"
   xmlns:svg="http://www.w3.org/2000/svg"
   xmlns="http://www.w3.org/2000/svg"
   id="svg2034"
   preserveAspectRatio="xMidYMid meet"
   viewBox="0 0 1280.000000 705.000000"
   height="705.000000pt"
   width="1280.000000pt"
   version="1.0">
  <defs
     id="defs2038" />
  <metadata
     id="metadata2010">
Created by potrace 1.15, written by Peter Selinger 2001-2017
<rdf:RDF>
  <cc:Work
     rdf:about="">
    <dc:format>image/svg+xml</dc:format>
    <dc:type
       rdf:resource="http://purl.org/dc/dcmitype/StillImage" />
    <dc:title></dc:title>
  </cc:Work>
</rdf:RDF>
</metadata>
  <g
     style="fill:#000000;stroke:none;stroke-width:0.80277747"
     id="g2032"
     transform="matrix(0.11537204,0,0,-0.13449593,-156.08262,948.06137)">
    <path
       style="stroke-width:0.80277747"
       id="path2012"
       d="m 8155,7044 c -436,-62 -836,-197 -1400,-474 -178,-88 -503,-264 -524,-285 -25,-26 58,11 370,164 643,315 921,422 1269,487 128,24 368,24 465,0 223,-54 319,-135 435,-371 72,-145 118,-282 216,-648 112,-421 105,-397 126,-397 10,0 18,6 18,14 0,18 -70,322 -160,701 -135,559 -145,589 -237,676 -97,92 -212,129 -413,134 -74,2 -148,1 -165,-1 z" />
    <path
       style="stroke-width:0.80277747"
       id="path2014"
       d="m 5185,6452 c -199,-126 -382,-628 -624,-1709 -74,-332 -133,-641 -160,-838 -51,-363 -123,-523 -271,-601 -58,-30 -142,-24 -223,16 -118,58 -194,167 -223,320 -14,73 -14,89 0,157 20,98 41,140 126,247 41,52 69,95 65,103 -3,8 -5,17 -5,19 0,2 -6,4 -14,4 -15,0 -110,-139 -139,-204 -54,-121 -73,-299 -41,-393 41,-119 185,-283 300,-339 50,-25 71,-29 139,-29 93,1 140,20 197,83 97,107 140,272 188,722 12,108 51,356 95,601 103,568 260,1187 374,1472 93,234 190,357 280,357 48,0 56,-7 80,-63 19,-43 24,-48 48,-45 45,5 41,36 -11,87 -40,39 -51,45 -98,48 -40,3 -60,-1 -83,-15 z" />
    <path
       style="stroke-width:0.80277747"
       id="path2016"
       d="m 5984,6308 c 12,-83 89,-112 176,-68 48,25 53,34 8,16 -101,-41 -155,-22 -149,53 2,37 0,41 -20,41 -20,0 -21,-3 -15,-42 z" />
    <path
       style="stroke-width:0.80277747"
       id="path2018"
       d="m 7355,6165 c -33,-7 -134,-37 -225,-65 -284,-88 -675,-181 -980,-234 -226,-39 -328,-48 -456,-44 -99,3 -126,8 -161,26 -53,28 -65,63 -34,96 24,25 28,56 7,56 -21,0 -37,-26 -43,-69 -5,-35 -2,-44 24,-70 47,-46 97,-56 283,-55 202,2 398,29 820,114 271,54 397,84 660,157 132,36 259,38 312,5 52,-32 76,-66 83,-117 19,-120 -79,-254 -215,-296 -20,-6 -21,-7 -5,-8 35,-1 119,45 154,84 80,91 119,235 87,320 -40,102 -146,137 -311,100 z" />
    <path
       style="stroke-width:0.80277747"
       id="path2020"
       d="m 7172,5678 c 6,-17 67,-27 158,-26 l 75,1 -55,7 c -30,4 -73,12 -95,19 -53,15 -88,14 -83,-1 z" />
    <path
       style="stroke-width:0.80277747"
       id="path2022"
       d="m 9130,5400 c 0,-8 22,-60 49,-116 109,-221 249,-262 429,-127 40,30 43,66 7,89 -36,23 -64,9 -115,-60 -39,-54 -42,-56 -88,-56 -27,0 -62,8 -82,19 -43,22 -121,134 -146,207 -20,59 -31,66 -16,10 14,-48 5,-45 -18,7 -11,23 -20,35 -20,27 z" />
    <path
       style="stroke-width:0.80277747"
       id="path2024"
       d="m 9840,4954 c -19,-2 -84,-9 -144,-14 -226,-22 -487,-78 -771,-165 C 8482,4640 8052,4465 7145,4052 7024,3997 6815,3903 6680,3842 6413,3722 5873,3464 5125,3097 3992,2543 3288,2251 2613,2056 c -163,-47 -339,-82 -501,-101 -118,-13 -142,-13 -225,1 -104,18 -231,71 -289,123 -86,75 -105,190 -50,298 38,75 129,174 220,242 88,64 313,176 482,239 367,136 688,199 800,157 73,-28 93,-29 114,-7 25,28 7,59 -40,68 -127,24 -499,-60 -851,-192 -458,-170 -768,-378 -873,-584 -49,-96 -45,-147 20,-229 79,-100 235,-150 490,-158 140,-4 183,-2 285,16 136,25 285,61 395,96 944,299 1253,429 2665,1120 823,403 1036,505 1350,645 121,54 423,189 670,300 957,430 1290,561 1773,695 367,102 760,145 1057,116 307,-30 619,-125 853,-261 28,-17 52,-28 52,-26 0,7 -116,82 -274,178 -71,43 -125,78 -120,78 18,0 387,-162 549,-242 73,-35 49,-15 -66,57 -201,125 -438,208 -709,250 -100,15 -472,28 -550,19 z" />
    <path
       style="stroke-width:0.80277747"
       id="path2026"
       d="m 11304,4534 c 8,-26 -5,-43 -39,-52 -27,-8 -24,-11 71,-69 290,-179 481,-397 639,-724 67,-140 88,-219 88,-329 0,-162 -51,-295 -158,-408 -143,-153 -325,-234 -665,-294 -159,-28 -195,-31 -400,-32 -206,-1 -243,2 -440,32 -118,17 -276,43 -350,57 -74,13 -175,26 -225,29 -49,3 -110,8 -135,11 -124,14 336,-92 515,-119 55,-8 213,-26 350,-40 624,-63 884,-60 1215,14 132,30 204,56 346,125 160,78 228,136 276,233 31,62 33,73 36,196 6,190 -22,288 -136,483 -170,290 -534,627 -956,883 -35,21 -38,22 -32,4 z" />
    <path
       style="stroke-width:0.80277747"
       id="path2028"
       d="m 11160,4506 c 0,-2 7,-7 16,-10 8,-3 12,-2 9,4 -6,10 -25,14 -25,6 z" />
    <path
       style="stroke-width:0.80277747"
       id="path2030"
       d="m 8675,3499 c -416,-55 -793,-162 -1245,-352 -244,-102 -351,-152 -910,-427 -664,-326 -895,-431 -1211,-548 -337,-126 -621,-198 -1029,-261 -402,-63 -412,-63 -925,-57 -628,7 -489,-17 255,-45 679,-25 1090,28 1642,211 354,118 648,248 1330,587 765,380 1014,491 1378,614 425,144 861,220 1179,206 179,-8 394,-46 676,-117 319,-81 422,-120 636,-237 115,-62 182,-86 104,-37 -198,125 -624,293 -963,380 -254,65 -404,86 -637,90 -115,1 -241,-2 -280,-7 z" />
  </g>
</svg>
